<svg xmlns="http://www.w3.org/2000/svg" viewBox="0 0 1000 1000" role="img" aria-label="Wedding illustration">
  <defs>
    <linearGradient id="bg" x1="0" y1="0" x2="1" y2="1">
      <stop offset="0%" stop-color="#f8e7d7" />
      <stop offset="100%" stop-color="#d79a6d" />
    </linearGradient>
    <linearGradient id="floral" x1="0" y1="0" x2="1" y2="0.8">
      <stop offset="0%" stop-color="#a55b37" />
      <stop offset="100%" stop-color="#6d3121" />
    </linearGradient>
  </defs>
  <rect width="1000" height="1000" fill="url(#bg)" />
  <g fill="none" stroke="url(#floral)" stroke-width="8" opacity="0.5">
    <path d="M90 770c75-40 110-95 120-160" />
    <path d="M910 770c-75-40-110-95-120-160" />
    <path d="M210 920c20-120 130-190 230-215" />
    <path d="M790 920c-20-120-130-190-230-215" />
  </g>
  <g fill="#7e3f2b" opacity="0.78">
    <circle cx="200" cy="580" r="16" />
    <circle cx="255" cy="545" r="11" />
    <circle cx="810" cy="585" r="16" />
    <circle cx="754" cy="545" r="11" />
    <circle cx="420" cy="810" r="13" />
    <circle cx="580" cy="810" r="13" />
  </g>
  <text x="500" y="455" text-anchor="middle" font-family="Cormorant Garamond, serif" font-size="220" fill="#5b2f26" font-weight="600">F &amp; A</text>
  <text x="500" y="555" text-anchor="middle" font-family="Sora, sans-serif" font-size="34" fill="#7b3f2b" letter-spacing="9">CELEBRATE WITH US</text>
</svg>
